<?xml version="1.0" encoding="UTF-8"?>
<!DOCTYPE svg PUBLIC "-//W3C//DTD SVG 1.1//EN" "http://www.w3.org/Graphics/SVG/1.1/DTD/svg11.dtd">
<svg version="1.1" xmlns="http://www.w3.org/2000/svg" xmlns:xlink="http://www.w3.org/1999/xlink" x="0" y="0" width="1024" height="1024" viewBox="0, 0, 1024, 1024">
  <g id="Layer_3" display="none">
    <path d="M0,0 L1000,0 L1000,1000 L0,1000 L0,0 z" fill="#324376"/>
  </g>
  <g id="Layer_2" display="none">
    <path d="M512,1024 C229.23,1024 -0,794.77 -0,512 C-0,229.23 229.23,-0 512,-0 C794.77,-0 1024,229.23 1024,512 C1024,794.77 794.77,1024 512,1024 z" fill="#F68E5F"/>
  </g>
  <g id="Layer_1">
    <g id="Layer_1">
      <path d="M551.008,792.246 C523.595,815.9 497.463,827.131 473.809,823.373 C446.395,818.377 431.45,797.242 431.45,795.959 C426.454,789.725 420.264,788.487 414.029,790.963 C407.795,795.959 406.557,802.15 409.033,808.384 C410.271,809.622 431.45,841.989 470.049,849.46 C494.943,851.936 519.88,846.984 547.249,829.519 C554.722,824.523 562.194,819.571 569.667,813.336 C575.901,807.102 575.901,799.63 570.905,794.678 C565.953,788.488 557.243,789.77 551.008,792.246 z" fill="#324376"/>
      <path d="M691.739,634.084 C669.322,650.266 648.142,656.501 625.726,651.505 C593.36,644.032 575.896,614.143 575.896,611.667 C573.42,605.433 574.658,597.961 580.892,594.246 C587.127,591.77 592.079,593.008 597.075,599.242 C597.075,599.242 608.262,621.66 631.961,626.656 C650.619,631.652 674.319,620.422 697.974,599.242 C704.208,594.246 709.16,596.766 714.157,600.48 C719.153,606.715 716.633,614.187 712.919,617.902 C705.446,625.374 697.974,629.132 691.74,634.085 z" fill="#324376"/>
      <path d="M385.421,634.084 C363.004,650.266 341.824,656.501 321.928,651.505 C289.562,644.032 272.097,614.143 272.097,611.667 C269.621,605.433 270.859,597.961 277.094,594.246 C283.328,591.77 288.28,593.008 293.277,599.242 C293.277,599.242 304.463,621.66 328.162,626.656 C346.821,631.652 369.238,620.422 391.656,599.242 C397.89,594.246 402.842,596.766 407.839,600.48 C412.835,606.715 410.315,614.187 406.601,617.902 C396.608,625.374 390.374,629.132 385.422,634.085 z" fill="#324376"/>
      <path d="M979.369,590.539 C965.663,519.574 918.353,469.741 868.565,478.453 L867.327,478.453 C829.965,385.071 759,312.821 674.325,270.51 C675.563,270.51 676.801,271.748 679.321,271.748 C676.845,270.51 673.087,269.272 670.611,268.034 C711.687,241.902 737.862,205.779 741.576,164.659 C741.532,81.224 639.439,6.496 509.93,0.271 C380.428,-4.681 270.859,58.812 268.335,144.726 C265.859,190.798 296.986,233.156 345.535,264.278 C245.917,306.637 167.485,387.555 128.875,490.921 C115.169,483.448 102.744,482.211 87.799,484.687 C37.969,493.397 8.123,560.648 20.548,636.612 C34.254,706.34 77.807,756.164 122.641,756.164 C186.134,940.451 374.186,1052.544 569.656,1017.659 C721.581,990.245 842.379,879.441 882.211,731.274 C892.159,733.75 904.628,733.75 914.576,732.512 C963.169,723.757 991.82,661.502 979.352,590.536 z M467.621,371.367 C481.327,343.953 487.562,322.818 492.514,307.873 C494.99,297.925 496.228,290.452 496.228,285.456 L503.7,285.456 C508.696,290.452 517.406,299.162 528.593,307.873 L529.831,307.873 C589.61,363.894 720.355,469.748 823.687,469.748 C827.401,477.22 831.159,484.693 834.873,493.403 L722.788,541.951 C697.895,515.82 660.533,502.114 620.695,508.347 C572.146,515.82 537.261,554.419 531.026,600.492 L531.026,598.016 L442.596,598.016 C442.596,595.54 442.596,594.302 441.358,591.781 C431.409,530.764 372.868,490.926 311.855,502.112 C284.442,507.109 260.787,520.771 245.842,540.713 L157.412,503.351 C163.646,488.406 169.881,473.461 177.353,459.754 C233.506,452.281 438.971,431.147 467.632,371.367 z M658.099,698.874 C635.681,703.871 614.502,698.874 595.844,685.168 C577.185,671.461 564.716,652.802 560.958,631.623 C552.248,586.789 583.376,544.475 628.209,535.719 C633.206,534.481 638.158,534.481 643.154,534.481 C682.992,534.481 717.878,561.895 726.589,602.971 C734.061,649.043 704.171,690.163 658.099,698.874 z M351.781,692.64 C329.363,697.636 308.184,692.64 289.525,678.933 C270.867,665.227 258.398,646.568 254.64,625.388 C245.929,580.554 277.057,538.24 321.891,529.485 C326.888,528.247 331.84,528.247 336.836,528.247 C376.674,528.247 411.56,555.661 420.27,596.737 C426.505,641.57 396.616,683.929 351.781,692.64 z M907.165,701.35 C898.454,702.588 889.744,700.112 879.751,693.878 L856.096,680.171 L849.862,706.303 C820.017,850.803 705.453,961.606 560.998,987.73 C379.19,1020.096 202.363,910.53 150.057,734.951 L145.061,717.53 L127.64,722.527 L125.163,722.527 C94.036,728.761 61.67,686.403 50.439,632.858 C40.491,579.312 57.911,528.244 87.801,522.054 C101.508,519.578 112.694,527.05 121.405,532.002 L141.346,549.423 L145.06,536.954 L227.257,571.84 C221.022,590.498 218.546,610.44 222.26,630.381 C228.495,661.509 244.678,685.163 268.332,702.585 C286.991,716.291 309.408,722.526 331.826,722.526 C339.298,722.526 345.532,722.526 350.484,720.049 C400.314,711.339 436.394,670.219 441.391,622.909 L528.539,622.909 C528.539,627.905 528.539,632.857 529.777,637.853 C536.011,668.981 552.194,692.636 575.849,710.057 C594.507,723.763 616.925,729.998 639.342,729.998 C645.577,729.998 653.049,728.76 658.001,727.522 C717.779,717.573 758.857,659.032 747.67,598.02 C746.432,589.309 743.956,580.599 740.197,573.127 L843.573,528.293 L860.994,519.582 C863.47,518.344 867.228,517.106 869.704,517.106 C898.355,510.872 930.721,550.711 939.432,600.541 C953.228,649.045 937.045,696.355 907.155,701.351 z" fill="#324376"/>
    </g>
  </g>
  <g id="Layer_1_Copy" display="none">
    <g id="Layer_1">
      <path d="M553.004,737.282 C530.967,756.298 509.961,765.326 490.945,762.305 C468.908,758.288 456.895,741.299 456.895,740.268 C452.878,735.256 447.902,734.261 442.89,736.251 C437.879,740.268 436.883,745.244 438.874,750.256 C439.869,751.251 456.895,777.269 487.924,783.276 C507.934,785.266 527.981,781.285 549.982,767.246 C555.989,763.229 561.996,759.248 568.003,754.237 C573.015,749.225 573.015,743.218 568.999,739.237 C565.018,734.261 558.016,735.292 553.004,737.283 z" fill="#324376"/>
      <path d="M666.134,610.14 C648.113,623.149 631.088,628.161 613.068,624.144 C587.05,618.137 573.011,594.11 573.011,592.12 C571.02,587.108 572.015,581.102 577.027,578.115 C582.039,576.125 586.02,577.12 590.036,582.132 C590.036,582.132 599.029,600.153 618.08,604.169 C633.079,608.185 652.131,599.157 671.146,582.132 C676.158,578.115 680.138,580.141 684.155,583.127 C688.172,588.139 686.145,594.145 683.16,597.132 C677.153,603.138 671.146,606.16 666.134,610.141 z" fill="#324376"/>
      <path d="M419.893,610.14 C401.872,623.149 384.847,628.161 368.852,624.144 C342.834,618.137 328.795,594.11 328.795,592.12 C326.805,587.108 327.8,581.102 332.812,578.115 C337.823,576.125 341.804,577.12 345.821,582.132 C345.821,582.132 354.813,600.153 373.864,604.169 C388.863,608.185 406.884,599.157 424.905,582.132 C429.917,578.115 433.897,580.141 437.914,583.127 C441.93,588.139 439.904,594.145 436.919,597.132 C428.886,603.138 423.874,606.16 419.893,610.141 z" fill="#324376"/>
      <path d="M897.353,575.135 C886.334,518.088 848.303,478.029 808.28,485.033 L807.285,485.033 C777.25,409.965 720.203,351.885 652.135,317.872 C653.13,317.872 654.126,318.868 656.152,318.868 C654.161,317.872 651.14,316.877 649.15,315.882 C682.169,294.876 703.211,265.837 706.197,232.781 C706.161,165.711 624.091,105.639 519.983,100.634 C415.879,96.654 327.8,147.694 325.771,216.758 C323.78,253.794 348.802,287.845 387.829,312.863 C307.75,346.914 244.7,411.962 213.663,495.055 C202.644,489.048 192.656,488.053 180.643,490.044 C140.586,497.046 116.593,551.107 126.581,612.172 C137.599,668.225 172.61,708.277 208.651,708.277 C259.692,856.421 410.861,946.529 567.994,918.486 C690.123,896.449 787.229,807.376 819.249,688.268 C827.246,690.259 837.27,690.259 845.267,689.264 C884.33,682.226 907.362,632.181 897.339,575.133 z M485.971,398.949 C496.989,376.911 502.001,359.921 505.982,347.908 C507.972,339.91 508.967,333.903 508.967,329.887 L514.974,329.887 C518.991,333.903 525.992,340.905 534.985,347.908 L535.98,347.908 C584.035,392.941 689.137,478.035 772.203,478.035 C775.189,484.042 778.21,490.048 781.196,497.05 L691.094,536.077 C671.083,515.071 641.048,504.053 609.024,509.064 C569.997,515.071 541.953,546.1 536.941,583.136 L536.941,581.146 L465.854,581.146 C465.854,579.155 465.854,578.16 464.859,576.134 C456.862,527.084 409.802,495.059 360.756,504.052 C338.718,508.068 319.703,519.051 307.689,535.082 L236.602,505.047 C241.614,493.033 246.626,481.02 252.632,470.001 C297.772,463.994 462.941,447.005 485.98,398.949 z M639.091,662.223 C621.071,666.24 604.045,662.223 589.046,651.205 C574.047,640.187 564.023,625.187 561.003,608.162 C554,572.121 579.023,538.105 615.064,531.067 C619.081,530.072 623.062,530.072 627.078,530.072 C659.102,530.072 687.147,552.109 694.149,585.129 C700.155,622.165 676.128,655.221 639.091,662.223 z M392.85,657.212 C374.829,661.228 357.804,657.212 342.805,646.193 C327.806,635.175 317.782,620.175 314.761,603.15 C307.759,567.109 332.782,533.094 368.823,526.056 C372.84,525.06 376.82,525.06 380.837,525.06 C412.861,525.06 440.906,547.098 447.907,580.117 C452.919,616.158 428.892,650.209 392.85,657.212 z M839.309,664.214 C832.307,665.209 825.305,663.219 817.272,658.207 L798.257,647.189 L793.245,668.195 C769.253,784.355 677.158,873.426 561.035,894.427 C414.884,920.445 272.737,832.368 230.69,691.225 L226.674,677.22 L212.669,681.237 L210.679,681.237 C185.656,686.248 159.638,652.198 150.61,609.154 C142.612,566.111 156.617,525.058 180.644,520.082 C191.662,518.091 200.655,524.098 207.658,528.079 L223.688,542.084 L226.673,532.06 L292.749,560.104 C287.737,575.103 285.747,591.134 288.732,607.164 C293.744,632.186 306.753,651.202 325.768,665.206 C340.768,676.224 358.788,681.236 376.809,681.236 C382.816,681.236 387.827,681.236 391.808,679.246 C431.865,672.244 460.869,639.188 464.885,601.157 L534.942,601.157 C534.942,605.173 534.942,609.154 535.937,613.17 C540.948,638.193 553.958,657.208 572.973,671.213 C587.972,682.231 605.993,687.243 624.014,687.243 C629.025,687.243 635.032,686.248 639.013,685.252 C687.067,677.255 720.088,630.195 711.095,581.149 C710.1,574.147 708.11,567.145 705.088,561.138 L788.189,525.097 L802.194,518.095 C804.184,517.1 807.205,516.105 809.196,516.105 C832.227,511.093 858.246,543.118 865.248,583.176 C876.338,622.167 863.329,660.198 839.301,664.214 z" fill="#324376"/>
    </g>
  </g>
</svg>
